<svg width="70" height="63" viewBox="0 0 70 63" fill="none" xmlns="http://www.w3.org/2000/svg">
<path d="M13.6217 0.146362C17.4366 0.146362 20.5881 1.47329 23.0761 4.12717C25.5641 6.61516 26.8081 9.76663 26.8081 13.5816C26.8081 15.572 26.4764 17.7283 25.8129 20.0504C25.3153 22.2067 24.5689 24.7776 23.5737 27.7632L12.8753 62.0976H0.932903L9.6409 26.2704C6.82117 25.4411 4.58197 23.9483 2.9233 21.792C1.26463 19.4699 0.435303 16.7331 0.435303 13.5816C0.435303 9.60077 1.6793 6.36636 4.1673 3.87835C6.6553 1.39036 9.80677 0.146362 13.6217 0.146362ZM55.9177 0.146362C59.7326 0.146362 62.8841 1.47329 65.3721 4.12717C67.8601 6.61516 69.1041 9.76663 69.1041 13.5816C69.1041 15.572 68.7724 17.7283 68.1089 20.0504C67.6113 22.2067 66.8649 24.7776 65.8697 27.7632L55.1713 62.0976H43.2289L51.9369 26.2704C49.1172 25.4411 46.878 23.9483 45.2193 21.792C43.5606 19.4699 42.7313 16.7331 42.7313 13.5816C42.7313 9.60077 43.9753 6.36636 46.4633 3.87835C48.9513 1.39036 52.1028 0.146362 55.9177 0.146362Z" fill="white"/>
</svg>
